<?xml version="1.0" standalone="no"?>
<svg viewBox="0 0 200 200" xmlns="http://www.w3.org/2000/svg">
  <path fill="#38A3A5" d="M34.1,-58.2C48.4,-50.9,67,-50.2,76.1,-41.5C85.3,-32.9,85,-16.5,84.2,-0.5C83.3,15.5,81.9,31,75.4,44.2C68.9,57.4,57.3,68.3,43.9,67C30.5,65.7,15.3,52.2,2.4,48.1C-10.5,43.9,-20.9,49.1,-31.5,48.8C-42,48.4,-52.6,42.5,-61.5,33.4C-70.3,24.3,-77.3,12.2,-80.8,-2C-84.3,-16.2,-84.2,-32.3,-77.4,-45C-70.6,-57.6,-57.1,-66.6,-43.1,-74C-29.1,-81.4,-14.6,-87.1,-2.3,-83.1C9.9,-79.1,19.9,-65.4,34.1,-58.2Z" transform="translate(100 100)" />
</svg>
